<svg xmlns="http://www.w3.org/2000/svg" xmlns:xlink="http://www.w3.org/1999/xlink" width="540" height="14" xmlns:v="https://vecta.io/nano"><defs><path id="A" d="M0 0h540v14H0z"/><path id="B" d="M0 0h169.242v196.222H0z"/></defs><g fill="none" fill-rule="evenodd"><mask id="C" fill="#fff"><use xlink:href="#A"/></mask><use fill="#f16464" xlink:href="#A"/><g mask="url(#C)"><g transform="matrix(0 -1 1 0 -4 23)"><path d="M.052 370.629V199.692l.118-5.148c.591-1.192 1.295-2.285 2.242-3.244l24.233-25.125c14.201-14.388 27.618-29.528 41.396-44.323l22.389-24.113 39.687-42.671 24.855-26.696c7.725-8.331 15.599-16.531 22.966-25.184C179.08 1.843 180.434.856 181.93 0h84.19l13.083 59.965 32.617 144.056 24.482 107.756 32.586 144.889c4.923 20.527-6.91 39.059-27.396 43.911L203.54 533.218l-29.593 7.311c-1.558.387-3.102.662-4.705.432-1.6-.471-2.659-1.677-3.772-2.801l-61.061-60.015-37.013-36.401-50.968-49.317c-4.315-4.254-8.877-8.286-13.204-12.552-1.233-1.217-2.396-2.462-3.054-4.097l-.118-5.148z" fill="#f16464"/><path d="M181.929 0c-9.07 11.015-19.054 21.202-28.753 31.648l-106.8 114.997C31.318 162.948 15.788 178.789.169 194.543l-.115-5.157L.049 0h181.881z" fill="#7ebcc6"/><g transform="translate(0 375.778)"><mask id="D" fill="#fff"><use xlink:href="#B"/></mask><path d="M.17 0c14.025 13.07 27.427 26.788 41.287 40.018L99.785 96.68l29.719 29.183 36.859 36.076c1.028 1.01 1.922 2.159 2.878 3.244l-51.565 12.549-74.34 17.849c-1.143.275-2.323.561-3.486.566-12.307.042-24.617-.022-36.924.076-2.194.016-2.931-.516-2.928-2.835L.117.393C.117.264.15.132.17 0" fill="#c02c57" mask="url(#D)"/></g></g></g></g></svg>