<svg xmlns="http://www.w3.org/2000/svg" width="20" height="12" xmlns:v="https://vecta.io/nano"><path d="M2.4 9.8V2.99L9.523 8.28a.8.8 0 0 0 .954 0L17.6 2.99V9.8H2.4zm13.581-7.6L10 6.641 4.019 2.2h11.962zm3.217-.817c-.001-.03-.005-.059-.009-.089l-.01-.069c-.006-.025-.015-.05-.023-.075l-.026-.075c-.009-.021-.022-.04-.033-.06l-.046-.077c-.02-.03-.033-.041-.045-.055L18.949.82c-.019-.018-.04-.034-.06-.05l-.062-.045c-.022-.014-.046-.026-.07-.038l-.069-.032c-.025-.01-.051-.017-.077-.024l-.072-.018c-.029-.005-.059-.007-.089-.009C18.434.604 18.417.6 18.4.6H1.6c-.018 0-.034.004-.052.005l-.088.009c-.025.004-.049.011-.073.018l-.076.024c-.024.009-.046.021-.069.032l-.07.038c-.022.014-.042.029-.062.045l-.06.05c-.021.02-.039.042-.058.063C.982.897.969.908.958.923.931.962.917.989.903 1.015l-.033.061c-.011.024-.018.049-.026.074l-.023.075c-.005.022-.007.046-.01.069l-.009.089L.8 10.6a.8.8 0 0 0 .8.8h16.8a.8.8 0 0 0 .8-.8V1.4l-.002-.017z" fill="#046183" fill-rule="evenodd"/></svg>