<?xml version="1.0" encoding="utf-8" ?>
<svg xmlns="http://www.w3.org/2000/svg" xmlns:xlink="http://www.w3.org/1999/xlink" width="21" height="21">
	<path fill="none" stroke="#046183" stroke-width="2" stroke-linecap="round" stroke-linejoin="round" transform="translate(1 3.09763)" d="M16 7.4667001L16 13.8667C16 14.4324 15.7753 14.975 15.3751 15.3751C14.975 15.7753 14.4324 16 13.8667 16L2.1333301 16C1.56754 16 1.02492 15.7753 0.62484002 15.3751C0.22476 14.975 0 14.4324 0 13.8667L0 2.1333301C0 1.56754 0.22476 1.02492 0.62484002 0.62484002C1.02492 0.22476 1.56754 0 2.1333301 0L8.5333004 0" fill-rule="evenodd"/>
	<path fill="none" stroke="#046183" stroke-width="2" stroke-linecap="round" stroke-linejoin="round" transform="translate(13 1.09763)" d="M0 0L6 0L6 6" fill-rule="evenodd"/>
	<path fill="none" stroke="#046183" stroke-width="2" stroke-linecap="round" stroke-linejoin="round" transform="translate(8 1.09763)" d="M0 11L11 0" fill-rule="evenodd"/>
</svg>
