<svg xmlns="http://www.w3.org/2000/svg" width="18" height="19" xmlns:v="https://vecta.io/nano"><path d="M8.252 13.52a1.04 1.04 0 0 0 .748.317c.282 0 .551-.114.748-.317l4.175-4.299c.404-.416.397-1.085-.015-1.493a1.04 1.04 0 0 0-1.48.016l-2.381 2.452v-9.14A1.05 1.05 0 0 0 9 0a1.05 1.05 0 0 0-1.047 1.056v9.139l-2.38-2.452a1.04 1.04 0 0 0-1.48-.016c-.413.408-.42 1.076-.015 1.493l4.175 4.299zM18 12.196v5.748A1.05 1.05 0 0 1 16.953 19H1.047A1.05 1.05 0 0 1 0 17.944v-5.748a1.05 1.05 0 0 1 1.047-1.056 1.05 1.05 0 0 1 1.047 1.056v4.693h13.814v-4.693a1.05 1.05 0 0 1 1.047-1.056A1.05 1.05 0 0 1 18 12.196h0z" fill="#046183" fill-rule="evenodd"/></svg>