<svg xmlns="http://www.w3.org/2000/svg" width="38" height="38" fill-rule="evenodd" opacity=".35" xmlns:v="https://vecta.io/nano"><g fill="#9a9a9a"><g transform="matrix(-1 0 0 1 37.3999 .60015)"><path d="M30.225 27.961L8.839 6.575C11.617 4.325 15.007 3.2 18.4 3.2a15.16 15.16 0 0 1 10.753 4.447c5.547 5.547 5.904 14.348 1.072 20.314M7.647 29.153C2.1 23.606 1.743 14.805 6.575 8.839l21.386 21.386c-5.966 4.831-14.767 4.475-20.314-1.072m23.77-23.77c-7.178-7.177-18.856-7.177-26.034 0s-7.177 18.856 0 26.034C8.972 35.005 13.686 36.8 18.4 36.8s9.428-1.794 13.017-5.383c7.177-7.178 7.177-18.856 0-26.034"/></g></g></svg>